<?xml version="1.0" standalone="no"?>
<!DOCTYPE svg PUBLIC "-//W3C//DTD SVG 20010904//EN"
 "http://www.w3.org/TR/2001/REC-SVG-20010904/DTD/svg10.dtd">
<svg version="1.0" xmlns="http://www.w3.org/2000/svg"
 width="1588.000000pt" height="2529.000000pt" viewBox="0 0 1588.000000 2529.000000"
 preserveAspectRatio="xMidYMid meet">
<metadata>
Created by potrace 1.16, written by Peter Selinger 2001-2019
</metadata>
<g transform="translate(0.000000,2529.000000) scale(0.100000,-0.100000)"
fill="#000000" stroke="none">
<path d="M13548 24639 c-26 -4 -69 -14 -95 -23 -27 -9 -73 -21 -103 -27 -30
-6 -71 -20 -90 -30 -19 -11 -50 -19 -68 -19 -18 0 -58 -11 -90 -24 -31 -13
-73 -27 -92 -31 -19 -4 -51 -15 -70 -25 -19 -9 -50 -20 -67 -23 -18 -4 -54
-16 -79 -28 -26 -11 -63 -23 -83 -26 -20 -3 -53 -14 -73 -24 -21 -11 -43 -19
-50 -19 -7 0 -33 -11 -58 -24 -25 -13 -67 -27 -94 -31 -27 -3 -70 -17 -95 -30
-80 -40 -138 -63 -177 -71 -22 -4 -59 -18 -83 -31 -24 -12 -53 -23 -65 -23
-12 0 -35 -9 -53 -19 -17 -11 -51 -25 -74 -31 -24 -7 -54 -20 -67 -31 -14 -10
-41 -19 -61 -19 -20 0 -53 -11 -76 -25 -22 -14 -47 -25 -55 -25 -8 0 -37 -12
-65 -25 -27 -14 -56 -25 -63 -25 -7 0 -29 -7 -50 -16 -20 -10 -57 -25 -82 -34
-25 -10 -68 -27 -97 -38 -29 -11 -64 -29 -79 -41 -15 -12 -37 -21 -49 -21 -12
0 -39 -11 -59 -25 -20 -14 -40 -25 -44 -25 -5 0 -22 -15 -40 -33 -55 -56 -39
-109 59 -195 43 -38 88 -42 126 -12 14 11 32 20 40 20 7 0 39 14 70 30 31 17
63 30 72 30 9 0 26 7 38 15 12 8 48 21 80 28 32 8 73 21 90 30 17 9 50 19 74
23 24 4 60 15 79 24 19 10 58 23 87 30 29 6 57 18 63 25 6 7 39 16 73 20 34 4
76 15 92 25 17 10 48 22 70 26 22 3 56 15 75 24 20 10 58 21 85 25 28 4 66 16
85 25 20 10 54 22 75 26 22 4 68 18 103 30 34 13 70 24 80 24 10 0 36 9 57 20
22 11 65 24 96 29 32 5 74 18 95 29 22 10 60 22 87 25 26 4 61 14 78 23 17 8
58 20 91 25 33 5 74 17 90 25 40 21 129 29 155 16 30 -16 35 -60 11 -84 -25
-25 -80 -48 -115 -48 -15 0 -42 -9 -60 -19 -17 -11 -51 -25 -75 -31 -24 -7
-50 -18 -59 -26 -8 -7 -31 -17 -50 -20 -19 -4 -54 -18 -79 -30 -25 -13 -51
-24 -58 -24 -7 0 -34 -11 -60 -25 -26 -14 -54 -25 -63 -25 -9 0 -28 -9 -43
-21 -14 -11 -43 -25 -63 -31 -21 -6 -48 -19 -62 -29 -13 -11 -29 -19 -35 -19
-11 0 -38 -12 -239 -110 -70 -35 -130 -66 -132 -71 -3 -4 -22 -13 -43 -20 -20
-6 -50 -22 -65 -35 -16 -13 -37 -24 -47 -24 -9 0 -23 -7 -30 -16 -8 -8 -27
-22 -44 -30 -123 -57 -196 -118 -196 -164 0 -34 41 -80 92 -101 15 -6 28 -16
28 -21 0 -5 19 -18 43 -29 61 -29 106 -55 125 -72 9 -8 35 -22 57 -31 21 -9
42 -20 45 -24 12 -17 79 -61 113 -76 20 -8 37 -19 37 -24 0 -5 12 -14 26 -21
14 -6 43 -26 65 -43 32 -26 44 -45 62 -102 21 -69 22 -83 21 -531 0 -268 -5
-525 -13 -615 -6 -85 -16 -240 -21 -345 -5 -104 -16 -228 -24 -275 -8 -47 -20
-139 -27 -205 -6 -66 -18 -142 -26 -170 -7 -27 -20 -93 -27 -146 -8 -53 -18
-105 -24 -116 -6 -11 -16 -51 -23 -89 -6 -38 -18 -82 -26 -97 -8 -16 -21 -62
-28 -103 -8 -41 -21 -84 -29 -97 -8 -12 -17 -44 -21 -70 -3 -26 -17 -71 -31
-100 -13 -29 -24 -59 -24 -67 0 -8 -7 -28 -16 -45 -9 -16 -24 -49 -33 -72 -22
-59 -186 -242 -217 -243 -6 0 -21 -11 -34 -25 -13 -14 -29 -25 -35 -25 -6 0
-26 -11 -44 -24 -18 -13 -47 -27 -66 -30 -18 -4 -38 -13 -45 -21 -6 -8 -28
-19 -47 -26 -20 -6 -51 -22 -71 -35 -19 -13 -40 -24 -47 -24 -7 0 -23 -8 -36
-18 -13 -11 -39 -24 -57 -30 -18 -6 -45 -20 -59 -32 -14 -11 -34 -20 -44 -20
-9 0 -24 -6 -31 -13 -20 -20 -54 -37 -75 -37 -11 0 -28 -8 -39 -18 -11 -10
-35 -24 -54 -30 -18 -7 -41 -18 -49 -26 -9 -7 -33 -19 -53 -25 -20 -7 -42 -18
-48 -26 -7 -8 -27 -17 -45 -21 -19 -3 -48 -17 -66 -30 -18 -13 -38 -24 -45
-24 -6 0 -22 -9 -36 -19 -13 -11 -42 -24 -65 -30 -23 -6 -45 -16 -48 -21 -3
-5 -45 -28 -92 -51 -48 -22 -98 -49 -111 -60 -14 -10 -35 -19 -47 -19 -12 0
-33 -8 -46 -19 -13 -10 -40 -23 -60 -30 -20 -6 -45 -21 -54 -31 -10 -11 -28
-20 -39 -20 -12 0 -32 -7 -46 -15 -14 -8 -35 -19 -46 -24 -100 -45 -174 -83
-179 -90 -3 -5 -27 -17 -54 -26 -27 -9 -55 -23 -61 -31 -7 -7 -21 -14 -30 -14
-10 0 -31 -11 -47 -24 -15 -13 -46 -26 -68 -30 -22 -4 -58 -20 -81 -34 -22
-15 -62 -38 -90 -51 -27 -13 -58 -29 -69 -35 -11 -5 -58 -29 -104 -53 -47 -24
-92 -49 -100 -57 -9 -8 -35 -19 -57 -25 -23 -6 -44 -17 -47 -25 -3 -8 -18 -17
-34 -21 -15 -3 -48 -24 -73 -46 l-45 -39 2 -525 3 -525 27 -52 c34 -66 120
-170 184 -222 27 -22 49 -43 49 -47 0 -11 38 -31 77 -40 38 -8 112 11 151 39
53 37 78 53 107 66 17 8 45 26 64 40 19 14 40 26 46 26 5 0 43 23 84 50 41 28
77 50 81 50 5 0 37 18 71 40 35 22 75 45 89 51 14 6 36 17 50 25 27 15 113 57
200 97 30 14 69 29 85 33 17 4 50 17 75 30 25 13 58 24 75 24 16 0 53 11 80
25 28 13 59 25 70 25 11 0 43 11 70 25 28 13 63 25 78 25 15 0 53 11 85 24 31
13 77 26 102 30 25 4 55 13 67 21 11 8 47 19 80 24 32 5 81 18 108 29 28 11
70 23 94 27 24 4 60 14 79 22 19 8 62 19 95 24 33 6 72 16 87 24 15 8 58 19
96 26 38 6 78 17 89 24 11 7 52 18 90 25 39 6 95 20 125 30 30 10 82 21 115
25 33 4 87 16 120 28 45 15 86 21 167 21 95 1 109 -1 130 -20 13 -12 35 -28
49 -35 50 -27 109 -69 109 -79 0 -6 5 -10 12 -10 6 0 34 -21 63 -47 28 -27 71
-64 94 -83 57 -47 260 -251 291 -291 32 -42 70 -136 70 -172 0 -15 -6 -40 -14
-55 -7 -15 -17 -45 -20 -67 -4 -21 -19 -59 -32 -84 -13 -25 -24 -57 -24 -71 0
-14 -7 -35 -15 -47 -9 -12 -22 -41 -31 -65 -8 -23 -21 -49 -28 -58 -8 -8 -18
-28 -22 -45 -4 -16 -23 -59 -42 -95 -20 -36 -57 -105 -83 -155 -90 -168 -97
-181 -113 -194 -9 -8 -16 -18 -16 -24 0 -10 -45 -78 -99 -152 -17 -22 -38 -53
-47 -70 -19 -34 -13 -28 -141 -164 -102 -108 -245 -231 -269 -231 -8 0 -22 -9
-32 -20 -9 -12 -51 -37 -92 -56 -41 -20 -91 -45 -111 -55 -20 -10 -44 -19 -53
-19 -9 0 -42 -9 -74 -21 -94 -33 -445 -68 -747 -72 -196 -3 -396 7 -660 33
-108 11 -134 15 -285 45 -91 18 -164 19 -178 3 -6 -7 -23 -38 -39 -68 -16 -30
-34 -64 -40 -75 -6 -11 -18 -36 -27 -55 -26 -54 -46 -94 -56 -110 -5 -8 -28
-53 -50 -100 -22 -47 -47 -96 -54 -110 -8 -14 -31 -59 -51 -100 -20 -41 -41
-82 -46 -90 -5 -8 -15 -28 -23 -45 -31 -68 -38 -81 -55 -110 -9 -16 -27 -46
-39 -65 -12 -19 -22 -42 -22 -51 0 -8 -11 -30 -25 -49 -14 -19 -25 -40 -25
-48 0 -8 -11 -27 -25 -44 -14 -16 -25 -37 -25 -46 0 -10 -11 -33 -23 -52 -13
-19 -27 -48 -31 -64 -4 -15 -15 -40 -25 -55 -51 -75 -70 -108 -76 -133 -4 -14
-15 -34 -26 -44 -10 -9 -19 -23 -19 -30 0 -6 -16 -31 -35 -54 -19 -23 -35 -45
-35 -50 0 -4 -13 -13 -28 -19 -29 -12 -91 3 -138 34 -12 8 -49 19 -82 24 -33
5 -77 18 -98 29 -22 11 -59 23 -84 27 -24 4 -54 14 -66 21 -11 8 -47 19 -80
25 -32 6 -71 17 -86 25 -15 8 -60 18 -100 24 -40 6 -101 17 -136 26 -92 22
-318 24 -402 2 -36 -10 -96 -22 -133 -28 -38 -6 -78 -17 -90 -24 -12 -8 -44
-19 -72 -25 -27 -5 -68 -19 -90 -31 -21 -11 -51 -20 -66 -20 -14 0 -37 -8 -50
-18 -13 -10 -50 -24 -81 -31 -31 -7 -61 -18 -68 -25 -6 -8 -31 -19 -56 -25
-25 -7 -56 -18 -67 -26 -61 -38 -135 -25 -172 32 -10 15 -25 33 -32 38 -14 10
-20 20 -60 92 -12 22 -28 45 -37 52 -8 7 -18 27 -21 44 -6 29 -24 61 -75 137
-9 14 -22 42 -29 62 -7 21 -17 41 -23 44 -5 3 -18 25 -29 48 -10 22 -32 64
-49 91 -17 28 -35 61 -41 75 -6 14 -17 36 -25 50 -7 14 -21 41 -30 60 -9 19
-23 42 -30 51 -8 9 -24 34 -35 55 -12 22 -43 82 -71 134 -28 52 -59 112 -69
132 -10 20 -23 39 -28 42 -5 4 -19 26 -31 51 -12 25 -26 45 -30 45 -5 0 -11 9
-15 20 -7 23 -64 118 -85 143 -93 109 -126 123 -250 108 -47 -5 -116 -13 -155
-16 -38 -4 -108 -15 -155 -26 -145 -33 -452 -44 -876 -31 -331 10 -381 14
-489 37 -66 14 -133 25 -148 25 -16 0 -46 9 -66 19 -61 32 -169 81 -179 81 -5
0 -16 7 -23 17 -8 9 -26 21 -40 27 -29 12 -120 89 -183 154 -22 24 -60 63 -83
87 -23 24 -47 54 -54 67 -7 12 -20 32 -30 43 -29 33 -113 138 -131 165 -10 14
-31 43 -47 65 -17 22 -37 55 -45 72 -8 18 -20 38 -26 45 -22 27 -61 91 -75
124 -8 19 -18 34 -24 34 -5 0 -15 17 -21 38 -7 20 -18 44 -25 52 -6 8 -28 51
-49 95 -20 44 -46 97 -56 117 -11 20 -20 43 -20 50 0 7 -11 36 -25 63 -13 28
-25 57 -25 65 0 8 -11 47 -25 85 -18 52 -25 91 -25 151 0 74 3 85 32 128 48
73 135 163 344 356 27 25 60 53 74 62 14 9 43 33 65 55 22 21 53 47 69 58 16
11 41 29 56 40 151 109 190 121 350 104 58 -6 132 -19 165 -29 33 -10 76 -21
95 -25 19 -3 58 -14 85 -22 28 -9 86 -24 130 -34 44 -9 98 -24 120 -33 22 -8
54 -15 72 -16 18 0 56 -9 85 -21 29 -11 77 -25 108 -31 30 -5 66 -16 80 -23
14 -7 58 -18 96 -23 39 -6 84 -17 100 -25 16 -8 46 -17 67 -21 21 -4 64 -16
97 -26 33 -10 88 -24 122 -30 34 -7 78 -20 97 -29 20 -10 58 -22 84 -25 26 -4
67 -16 90 -26 23 -11 51 -20 62 -20 11 0 43 -11 70 -25 28 -13 60 -25 72 -25
25 0 130 -38 208 -75 28 -14 64 -27 81 -30 18 -3 40 -15 49 -25 9 -10 31 -22
49 -26 17 -3 51 -17 76 -30 25 -13 50 -24 56 -24 6 0 17 -7 24 -14 6 -8 28
-20 48 -27 20 -7 50 -22 65 -35 16 -13 34 -24 42 -24 7 0 18 -7 25 -15 7 -8
31 -24 54 -35 41 -20 88 -48 142 -84 79 -53 101 -66 108 -66 4 0 24 -14 45
-30 48 -39 101 -49 126 -24 10 10 61 70 114 133 l96 115 3 235 c1 130 -2 371
-7 536 -13 417 -25 446 -201 531 -41 20 -142 70 -225 110 -82 41 -155 74 -161
74 -6 0 -23 9 -37 20 -14 12 -41 26 -59 32 -18 6 -44 19 -57 29 -12 10 -39 21
-60 25 -20 4 -48 15 -63 25 -14 11 -30 19 -35 19 -8 0 -214 99 -290 139 -50
27 -151 71 -162 71 -6 0 -60 25 -120 55 -60 30 -113 55 -119 55 -5 0 -15 7
-22 15 -7 8 -31 20 -54 26 -22 6 -48 17 -56 24 -8 8 -34 18 -57 23 -23 5 -54
19 -69 31 -15 11 -34 21 -43 21 -9 0 -33 11 -53 25 -20 14 -41 25 -46 25 -5 0
-20 9 -34 19 -13 11 -44 24 -68 31 -25 6 -54 17 -65 24 -11 7 -38 19 -60 26
-22 7 -51 21 -64 31 -13 11 -29 19 -36 19 -7 0 -28 11 -48 24 -20 14 -52 28
-71 31 -19 4 -42 16 -52 26 -9 10 -22 19 -29 19 -7 0 -32 11 -57 24 -24 13
-55 27 -69 31 -13 4 -35 16 -48 26 -13 11 -31 19 -40 19 -16 0 -229 102 -271
131 -14 9 -52 34 -85 55 -69 44 -119 95 -137 139 -6 16 -22 43 -35 58 -13 16
-23 38 -23 51 0 12 -9 39 -20 61 -11 21 -25 54 -31 74 -6 20 -18 46 -25 58 -8
12 -20 50 -28 83 -8 34 -20 67 -26 75 -7 8 -20 45 -30 82 -35 126 -66 228 -77
248 -6 11 -16 54 -22 96 -5 41 -17 91 -25 110 -8 20 -18 60 -21 90 -4 30 -15
90 -25 134 -10 44 -24 132 -30 195 -6 63 -17 138 -25 165 -7 28 -19 115 -25
195 -6 80 -17 204 -25 275 -11 95 -16 273 -18 665 l-2 535 27 46 c27 44 96
109 117 109 6 0 26 14 44 30 19 17 41 30 49 30 9 0 27 9 42 21 15 11 57 37 94
56 37 19 72 41 77 47 6 7 26 18 46 25 20 6 45 21 54 31 10 11 23 20 28 20 6 0
19 8 29 17 20 18 65 47 130 83 31 16 38 26 38 50 0 17 -8 37 -17 45 -44 39
-80 63 -103 69 -23 7 -117 48 -183 82 -16 8 -34 14 -41 14 -7 0 -27 11 -46 25
-19 14 -41 25 -49 25 -9 0 -43 14 -76 30 -33 16 -67 30 -75 30 -8 0 -33 12
-55 25 -22 14 -47 25 -56 25 -9 0 -27 8 -40 19 -13 10 -42 21 -64 25 -21 4
-51 16 -65 26 -30 21 -163 80 -181 80 -6 0 -50 19 -98 41 -47 23 -107 48 -132
55 -26 8 -52 21 -59 29 -7 8 -28 17 -49 21 -20 4 -52 15 -71 25 -19 10 -51 25
-70 34 -19 8 -53 25 -75 38 -37 20 -40 26 -41 67 -2 70 7 80 74 80 35 0 74 -8
100 -20 23 -10 59 -22 80 -25 40 -7 182 -48 247 -72 22 -8 76 -23 120 -34 86
-19 206 -59 252 -82 15 -8 50 -18 78 -22 27 -4 62 -13 78 -21 15 -8 53 -20 84
-25 32 -6 74 -19 95 -30 20 -10 45 -19 55 -19 11 0 37 -9 58 -21 22 -11 65
-25 95 -30 30 -6 69 -17 85 -24 42 -20 200 -71 263 -85 28 -7 54 -16 57 -20 3
-4 29 -13 57 -20 29 -7 67 -20 83 -30 17 -10 49 -23 73 -30 24 -6 58 -20 75
-31 18 -10 39 -19 46 -19 8 0 32 -12 52 -26 49 -34 89 -26 127 24 15 20 32 42
38 47 6 6 21 28 33 49 22 39 22 40 3 65 -22 29 -116 98 -147 107 -11 3 -51 21
-90 39 -38 19 -99 43 -135 55 -36 11 -81 29 -101 40 -20 11 -43 20 -50 20 -8
0 -36 11 -64 25 -27 13 -57 25 -66 25 -9 0 -28 9 -42 20 -14 11 -48 25 -76 30
-28 5 -69 19 -90 30 -22 11 -46 20 -53 20 -7 0 -35 12 -63 25 -27 14 -58 25
-69 25 -10 0 -35 9 -55 20 -20 11 -63 29 -96 39 -33 11 -91 32 -130 46 -38 15
-90 34 -115 42 -25 8 -70 26 -101 39 -31 13 -62 24 -68 24 -7 0 -29 9 -49 19
-21 11 -56 23 -77 27 -22 3 -53 14 -70 22 -16 9 -52 21 -80 28 -51 13 -236 77
-253 87 -5 4 -40 11 -78 17 -38 6 -75 17 -84 24 -8 7 -46 21 -85 30 -38 9 -95
23 -125 31 -71 20 -179 20 -207 0 -12 -8 -38 -45 -58 -81 -35 -63 -37 -71 -42
-182 -6 -128 8 -328 31 -437 8 -39 19 -105 25 -148 6 -43 17 -99 26 -125 8
-26 19 -93 24 -148 5 -56 16 -115 24 -130 8 -16 20 -67 26 -114 6 -47 18 -103
25 -125 8 -22 17 -62 21 -90 7 -57 46 -234 75 -342 11 -40 25 -105 30 -143 6
-39 17 -84 25 -99 8 -16 19 -68 25 -116 6 -49 15 -97 21 -107 6 -10 17 -53 25
-95 8 -42 21 -95 28 -118 8 -23 20 -79 26 -125 6 -45 19 -103 29 -129 10 -25
22 -77 26 -116 4 -38 15 -90 25 -115 9 -25 21 -71 25 -103 3 -32 13 -74 21
-93 8 -19 21 -99 29 -177 8 -78 19 -166 25 -196 12 -66 12 -211 0 -311 -6 -41
-17 -147 -25 -235 -8 -88 -21 -181 -29 -207 -8 -26 -18 -76 -21 -110 -4 -35
-15 -92 -25 -128 -11 -36 -24 -102 -29 -147 -6 -45 -17 -98 -26 -119 -8 -20
-20 -77 -25 -128 -6 -50 -19 -116 -30 -146 -10 -30 -21 -80 -25 -111 -3 -30
-13 -68 -21 -84 -8 -15 -19 -67 -23 -114 -5 -47 -18 -120 -30 -161 -11 -41
-27 -118 -36 -170 -9 -52 -21 -120 -26 -150 -28 -156 -18 -1412 11 -1550 5
-25 16 -126 25 -225 8 -99 22 -214 30 -255 8 -41 20 -153 25 -249 6 -96 16
-207 24 -245 8 -39 20 -129 26 -201 6 -71 17 -159 25 -195 8 -36 19 -124 25
-197 6 -73 17 -153 25 -179 8 -26 17 -72 20 -103 8 -70 62 -256 87 -296 10
-16 18 -38 18 -47 0 -16 54 -131 141 -298 22 -41 48 -94 59 -117 31 -63 215
-340 285 -428 11 -13 56 -70 100 -126 101 -128 392 -422 468 -472 31 -21 57
-42 57 -47 0 -5 15 -13 34 -20 18 -6 42 -20 52 -31 10 -11 43 -34 73 -51 31
-17 69 -42 84 -55 16 -13 32 -23 37 -23 13 0 114 -63 123 -77 4 -7 15 -13 23
-13 23 0 157 -139 178 -185 11 -22 27 -50 37 -63 10 -13 21 -37 24 -55 4 -18
13 -39 20 -47 13 -16 37 -59 78 -146 14 -28 29 -54 35 -58 6 -3 14 -21 18 -39
3 -17 15 -42 25 -55 10 -13 20 -36 24 -51 3 -16 15 -37 26 -47 10 -9 19 -22
19 -28 0 -13 64 -141 79 -160 6 -7 17 -32 26 -55 8 -23 24 -54 35 -68 11 -14
20 -33 20 -42 0 -10 11 -32 25 -51 14 -19 25 -40 25 -48 0 -8 9 -27 20 -42 11
-16 23 -42 26 -58 4 -17 15 -40 26 -52 10 -11 24 -35 30 -53 6 -17 19 -43 30
-56 10 -13 18 -34 18 -47 0 -12 11 -36 25 -52 14 -17 25 -35 25 -40 0 -14 70
-151 81 -157 5 -3 14 -25 20 -48 6 -23 19 -53 28 -67 10 -14 23 -40 30 -57 8
-18 17 -33 22 -33 4 0 13 -19 20 -42 6 -23 19 -53 30 -66 10 -14 19 -32 19
-40 0 -14 16 -50 80 -187 10 -22 26 -74 36 -116 15 -71 15 -80 -1 -150 -10
-41 -26 -88 -35 -105 -10 -17 -21 -47 -25 -65 -4 -19 -15 -47 -25 -64 -10 -16
-21 -45 -25 -64 -4 -19 -18 -54 -31 -79 -13 -25 -24 -55 -24 -66 0 -12 -9 -39
-20 -61 -11 -21 -23 -55 -26 -74 -4 -20 -15 -52 -24 -71 -10 -19 -23 -59 -29
-88 -6 -29 -17 -65 -25 -80 -8 -16 -20 -56 -26 -91 -6 -35 -18 -73 -25 -85 -8
-12 -19 -57 -24 -101 -6 -44 -18 -102 -26 -130 -38 -125 -44 -502 -10 -596 9
-24 23 -69 32 -99 8 -30 23 -63 34 -73 10 -10 19 -22 19 -27 0 -15 88 -144
153 -224 19 -23 38 -49 43 -58 17 -31 104 -125 270 -291 164 -164 194 -192
254 -237 18 -14 51 -38 72 -55 84 -66 97 -75 107 -75 5 0 16 -9 24 -20 7 -10
24 -24 38 -30 13 -5 44 -26 69 -45 25 -20 63 -45 85 -56 22 -11 58 -32 80 -45
22 -13 60 -34 84 -45 25 -12 53 -29 63 -39 11 -10 33 -20 50 -24 16 -3 42 -14
56 -25 15 -10 38 -22 52 -26 14 -4 36 -16 49 -26 13 -11 31 -19 41 -19 9 0 37
-11 62 -24 25 -13 60 -27 79 -31 19 -4 50 -15 69 -25 19 -9 53 -21 75 -24 21
-4 55 -16 75 -26 19 -10 62 -21 95 -25 33 -3 83 -14 110 -23 45 -15 114 -17
630 -17 518 1 607 3 835 24 161 14 279 29 320 42 36 10 81 21 100 25 19 3 62
14 95 25 33 10 85 25 115 33 83 22 149 45 206 72 28 13 56 24 62 24 6 0 32 11
58 25 26 14 55 25 64 25 10 0 28 9 42 19 13 11 63 39 111 63 141 69 164 82
184 100 11 10 23 18 27 18 8 0 163 107 188 130 9 8 62 51 118 95 108 84 333
303 415 402 27 32 59 69 71 83 100 110 133 150 139 169 3 11 10 21 15 21 5 0
19 17 30 37 11 21 38 63 60 93 22 30 40 59 40 63 0 4 9 21 21 36 33 44 70 140
81 206 14 84 2 370 -18 431 -9 27 -24 92 -34 144 -21 109 -45 205 -67 270 -8
25 -20 68 -28 96 -7 28 -22 77 -34 108 -11 31 -21 64 -21 74 0 9 -11 40 -25
67 -13 28 -25 57 -25 65 0 8 -12 38 -25 65 -14 28 -25 59 -25 70 0 11 -12 43
-25 70 -14 28 -25 59 -25 69 0 10 -11 42 -24 70 -58 124 -76 185 -76 259 0 44
6 82 15 97 16 28 16 28 57 125 17 39 41 93 54 120 49 104 74 164 74 178 0 8 9
26 21 41 11 14 25 43 31 64 5 20 16 44 23 52 7 8 18 33 25 55 7 22 19 47 26
56 8 9 21 39 29 67 9 29 20 52 25 52 4 0 14 17 21 38 6 20 20 49 30 63 10 14
21 38 25 55 4 16 15 37 24 46 10 9 21 35 25 57 4 22 13 45 20 51 8 6 19 28 26
48 7 20 20 47 30 60 10 13 21 37 25 55 3 18 15 44 25 59 11 14 19 29 19 33 0
7 71 154 90 185 18 30 70 147 70 157 0 5 9 18 20 28 11 10 20 24 20 30 0 7 14
37 30 68 17 31 30 61 30 66 0 6 11 27 25 47 14 20 25 43 25 51 0 8 9 26 20 40
11 14 25 44 31 67 6 22 17 48 24 56 7 8 20 31 30 50 42 91 73 132 131 178 43
34 104 72 114 72 5 0 24 13 42 28 46 38 112 82 125 82 6 0 17 7 24 16 7 9 43
35 79 59 36 24 72 50 79 59 7 9 18 16 23 16 27 0 338 286 338 311 0 4 22 31
50 61 27 29 50 57 50 61 0 4 23 35 50 68 28 33 50 66 50 73 0 8 7 19 16 27 8
7 30 35 48 63 18 28 41 64 52 80 26 40 73 121 128 221 9 17 16 35 16 41 0 6 9
19 19 28 11 10 22 30 26 44 3 15 14 38 23 52 42 65 68 122 122 275 12 33 30
79 41 102 10 24 19 52 19 63 0 12 9 37 19 58 13 25 23 78 30 159 6 67 17 150
25 185 8 35 17 106 21 158 7 113 35 362 41 371 2 4 9 96 14 206 6 109 17 243
25 298 23 159 36 496 36 975 1 475 -8 664 -41 828 -11 56 -20 124 -20 150 0
26 -5 63 -10 82 -6 19 -24 98 -40 175 -49 232 -67 309 -78 336 -6 15 -16 64
-22 110 -7 46 -18 98 -26 116 -7 18 -16 54 -20 80 -4 26 -17 80 -29 118 -13
39 -26 101 -30 140 -4 38 -13 86 -21 105 -20 53 -64 253 -79 360 -7 52 -18
106 -23 120 -26 69 -36 226 -36 570 1 351 4 397 39 560 8 36 19 99 25 140 6
41 17 95 25 120 7 25 19 78 25 118 6 41 17 90 26 110 8 20 17 63 20 97 4 33
15 92 27 130 11 39 26 99 33 135 32 168 64 312 73 328 5 9 13 53 19 97 6 44
17 96 25 115 8 19 20 70 27 113 6 43 18 93 25 111 8 18 19 72 25 119 6 47 17
102 26 123 9 20 20 65 25 98 5 34 16 81 24 106 8 25 21 86 29 135 8 50 21 119
29 155 9 36 20 121 27 190 6 69 16 158 22 198 15 98 5 290 -20 374 -18 65 -61
131 -92 142 -29 10 -85 13 -132 5z"/>
<path d="M7488 24065 c-8 -8 -204 -24 -438 -35 -118 -6 -233 -14 -255 -20 -22
-5 -96 -17 -165 -26 -69 -8 -150 -22 -180 -30 -31 -7 -89 -18 -130 -24 -41 -6
-102 -19 -135 -29 -33 -10 -87 -22 -120 -26 -33 -4 -71 -13 -85 -20 -14 -7
-54 -19 -89 -25 -35 -6 -73 -17 -85 -25 -12 -7 -41 -16 -66 -20 -51 -7 -214
-58 -275 -85 -22 -9 -56 -21 -75 -25 -19 -4 -51 -16 -70 -26 -19 -11 -44 -19
-56 -19 -11 0 -41 -11 -65 -23 -24 -13 -57 -27 -73 -31 -15 -4 -40 -15 -55
-25 -14 -11 -46 -22 -70 -25 -24 -4 -56 -15 -70 -24 -23 -16 -139 -74 -331
-165 -36 -17 -72 -36 -80 -43 -8 -7 -33 -17 -56 -23 -22 -6 -49 -20 -59 -31
-10 -11 -25 -20 -34 -20 -9 0 -29 -9 -46 -20 -16 -11 -90 -50 -163 -87 -73
-38 -154 -80 -180 -95 -26 -15 -58 -33 -72 -40 -14 -7 -38 -23 -53 -35 -16
-13 -37 -23 -47 -23 -10 0 -31 -11 -47 -23 -27 -23 -51 -37 -123 -74 -19 -9
-43 -23 -52 -31 -9 -8 -30 -21 -46 -30 -88 -50 -99 -62 -122 -125 -22 -58 -22
-72 -17 -252 12 -400 38 -876 57 -1025 10 -85 22 -191 25 -234 3 -44 15 -116
25 -160 10 -45 22 -115 25 -156 4 -41 14 -92 21 -113 8 -21 19 -69 25 -105 6
-37 19 -89 29 -117 9 -27 21 -68 24 -89 8 -44 60 -204 81 -251 7 -16 18 -50
25 -75 6 -25 17 -54 25 -65 7 -11 16 -40 20 -63 4 -23 14 -49 22 -58 8 -8 21
-36 29 -61 8 -26 21 -54 28 -62 8 -9 19 -35 24 -58 5 -23 19 -54 31 -69 11
-15 21 -33 21 -40 0 -15 97 -101 139 -124 15 -8 75 -39 132 -68 57 -28 111
-56 119 -61 8 -5 47 -24 85 -41 39 -17 77 -36 85 -41 8 -5 31 -16 50 -25 19
-8 82 -38 140 -66 58 -27 130 -61 160 -75 120 -55 186 -88 209 -105 13 -10 36
-18 50 -18 15 0 42 -11 60 -24 19 -14 46 -28 62 -31 16 -4 29 -10 29 -15 0 -5
17 -14 38 -20 34 -11 120 -49 167 -73 11 -6 53 -28 93 -49 40 -21 77 -38 84
-38 16 0 156 -68 163 -79 3 -6 29 -17 59 -25 29 -9 59 -22 65 -30 7 -8 24 -17
38 -21 14 -3 66 -26 115 -51 49 -24 95 -44 101 -44 7 0 23 -6 37 -13 14 -8 56
-30 93 -50 38 -21 74 -37 81 -37 7 0 29 -11 49 -24 19 -13 48 -27 65 -30 16
-4 44 -18 63 -32 18 -13 38 -24 45 -24 6 0 23 -9 37 -20 14 -11 40 -23 57 -27
18 -3 65 -25 104 -47 119 -69 129 -75 173 -95 60 -28 89 -57 115 -115 l23 -51
0 -640 0 -640 -32 -65 c-40 -80 -226 -275 -392 -410 -59 -48 -68 -52 -105 -48
-24 3 -60 18 -86 37 -25 17 -56 39 -70 48 -51 33 -115 77 -120 83 -12 13 -111
80 -119 80 -5 0 -22 11 -38 24 -15 13 -43 32 -62 42 -43 24 -60 34 -96 59 -17
11 -84 47 -150 79 -66 32 -136 66 -155 76 -20 10 -56 23 -80 30 -25 6 -52 18
-61 26 -8 8 -39 18 -69 24 -29 6 -58 14 -64 19 -15 12 -150 60 -217 77 -31 7
-73 21 -93 29 -21 9 -63 21 -94 26 -31 6 -68 17 -82 24 -14 7 -52 18 -85 25
-33 7 -72 19 -87 26 -15 8 -62 19 -105 25 -42 6 -90 17 -105 25 -16 8 -54 19
-86 25 -31 5 -75 17 -97 25 -22 9 -69 20 -105 25 -36 5 -87 18 -115 28 -27 10
-79 22 -114 26 -35 4 -82 15 -105 25 -22 10 -64 21 -93 24 -29 4 -71 13 -94
21 -57 21 -272 39 -342 31 -67 -9 -112 -40 -247 -173 -47 -46 -102 -100 -124
-121 -21 -20 -49 -53 -62 -72 -101 -144 -94 -129 -94 -211 0 -59 4 -82 19
-100 10 -13 23 -41 30 -61 7 -20 18 -41 26 -48 7 -6 16 -23 20 -37 3 -15 14
-38 24 -52 10 -14 23 -41 29 -59 6 -18 20 -45 32 -59 11 -14 20 -31 20 -38 0
-7 8 -23 19 -36 10 -13 23 -41 30 -61 7 -20 18 -42 26 -48 8 -7 21 -24 28 -39
34 -63 116 -190 155 -239 23 -30 42 -57 42 -62 0 -12 182 -224 215 -251 6 -4
35 -30 66 -57 31 -27 70 -57 88 -68 17 -10 31 -21 31 -25 0 -4 14 -12 30 -19
17 -7 30 -17 30 -22 0 -5 17 -16 38 -25 20 -8 48 -23 62 -33 14 -10 41 -21 60
-25 19 -4 42 -14 51 -22 16 -14 75 -26 259 -53 100 -15 765 -8 895 9 44 6 132
15 196 21 64 5 134 16 157 24 23 8 81 18 129 21 48 4 126 16 173 28 47 11 112
21 145 21 52 1 66 -3 101 -29 25 -18 51 -49 63 -75 12 -25 34 -67 51 -95 16
-27 39 -68 50 -90 11 -22 27 -51 34 -65 8 -14 19 -36 25 -50 6 -14 16 -34 23
-45 7 -11 25 -40 40 -64 16 -25 28 -52 28 -61 0 -10 6 -22 13 -28 7 -6 34 -53
61 -104 26 -51 54 -104 61 -118 7 -14 18 -36 25 -50 6 -14 22 -43 35 -65 14
-22 37 -62 51 -90 14 -27 37 -71 52 -97 67 -115 102 -179 102 -184 0 -9 64
-99 73 -102 4 -2 16 -21 26 -41 28 -54 102 -118 146 -127 44 -8 136 9 230 43
39 14 99 36 135 49 171 62 324 83 590 83 250 0 449 -26 610 -80 30 -10 75 -21
100 -25 25 -4 66 -15 93 -25 26 -11 85 -22 131 -25 l84 -7 33 36 c51 52 89
108 89 128 0 10 11 31 25 47 14 17 25 38 25 49 0 11 11 34 24 52 14 19 28 46
31 62 4 15 13 33 20 39 8 6 19 28 26 48 6 20 17 44 24 52 6 8 29 51 50 95 21
44 46 91 55 105 9 14 20 37 24 52 3 15 17 44 31 64 14 20 25 42 25 49 0 7 7
18 14 25 8 6 22 33 31 60 9 27 22 54 30 60 8 6 17 25 20 42 4 16 18 46 31 65
13 20 24 41 24 48 0 7 8 23 19 36 10 13 22 35 26 48 4 12 17 38 29 57 53 83
65 104 71 126 4 13 18 37 31 55 13 17 24 36 24 42 0 5 20 24 44 41 49 33 98
38 171 19 22 -6 83 -19 135 -29 52 -10 122 -25 155 -33 186 -49 1385 -50 1518
-1 20 8 56 21 80 30 61 22 151 67 155 76 2 5 20 17 40 27 98 51 333 325 477
554 11 18 27 41 37 51 10 11 18 25 18 31 0 6 11 26 25 45 14 19 25 41 25 49 0
8 11 32 25 53 60 91 73 115 79 142 4 16 16 41 27 54 10 14 19 31 19 39 0 8 11
36 24 62 59 112 81 191 81 286 0 89 0 91 -38 140 -37 48 -165 174 -178 175 -3
0 -26 19 -50 43 -25 23 -70 62 -102 86 -31 24 -57 46 -57 50 -1 3 -24 22 -51
41 -28 19 -66 47 -85 62 -20 15 -55 30 -80 34 -49 7 -193 -11 -239 -30 -16 -7
-55 -19 -85 -26 -30 -7 -77 -21 -105 -31 -27 -10 -77 -21 -110 -25 -33 -3 -74
-14 -91 -24 -17 -9 -61 -23 -98 -29 -38 -7 -78 -18 -90 -26 -11 -8 -48 -18
-81 -24 -33 -5 -80 -19 -105 -30 -25 -11 -58 -21 -73 -21 -15 0 -44 -7 -65
-16 -20 -9 -63 -22 -95 -30 -32 -8 -70 -20 -85 -28 -16 -8 -57 -20 -92 -26
-35 -6 -81 -20 -102 -31 -20 -10 -45 -19 -55 -19 -11 0 -37 -9 -58 -20 -22
-11 -58 -23 -80 -27 -22 -3 -60 -16 -85 -29 -25 -13 -56 -24 -69 -24 -14 0
-43 -9 -65 -19 -23 -11 -59 -26 -81 -35 -209 -77 -309 -122 -436 -195 -53 -30
-163 -101 -198 -128 -13 -10 -33 -25 -46 -33 -12 -8 -35 -24 -51 -35 -28 -18
-127 -99 -169 -137 -68 -61 -160 -128 -185 -133 -16 -3 -37 -2 -47 4 -18 9
-230 230 -289 300 -16 19 -37 42 -46 52 -38 40 -85 119 -97 162 -20 70 -11
1320 9 1361 15 28 113 97 197 137 23 11 45 23 47 28 6 9 74 43 157 79 26 11
50 25 53 31 4 6 15 11 25 11 10 0 30 9 45 21 14 11 43 25 64 31 20 5 46 18 57
28 11 9 35 22 53 28 18 6 46 20 61 32 16 11 34 20 41 20 6 0 28 9 48 20 20 10
51 25 67 33 17 7 39 18 50 24 33 19 149 71 173 78 12 3 22 10 22 15 0 5 23 16
50 24 28 8 62 24 77 36 14 11 32 20 40 20 8 0 31 11 51 25 20 14 42 25 47 25
6 0 81 35 166 78 85 42 166 82 179 89 14 6 44 21 66 32 23 10 45 24 48 29 3 6
20 14 38 17 17 4 77 30 133 59 56 28 126 62 156 75 30 13 65 29 79 37 14 8 44
23 67 34 23 11 45 25 48 30 3 5 30 17 60 26 30 8 57 20 61 25 3 6 25 19 48 30
22 10 48 23 56 28 8 5 47 25 85 44 78 37 121 61 170 93 18 12 44 25 56 29 47
15 178 133 203 183 9 17 21 32 26 32 5 0 14 19 21 43 6 23 19 56 30 73 10 17
19 38 19 46 0 7 9 32 21 53 11 22 25 65 30 95 6 30 17 67 25 82 8 15 21 60 28
100 8 40 21 89 29 108 8 19 18 62 21 95 4 33 16 87 26 120 10 33 24 109 29
168 6 59 15 116 21 127 6 10 17 88 25 172 8 84 20 178 25 208 29 150 47 813
31 1120 -14 268 -24 300 -128 402 -45 46 -79 70 -100 74 -18 3 -38 13 -44 21
-7 8 -26 21 -43 30 -17 9 -34 21 -39 29 -4 7 -20 15 -35 19 -15 3 -52 23 -82
45 -30 22 -66 45 -80 51 -14 6 -36 17 -50 25 -14 7 -41 21 -60 29 -19 8 -56
27 -83 41 -112 60 -343 174 -353 174 -6 0 -19 9 -29 20 -10 11 -26 20 -36 20
-21 0 -47 12 -114 51 -27 16 -66 36 -85 44 -19 9 -82 39 -140 66 -168 81 -183
87 -227 99 -24 6 -43 14 -43 19 0 7 -105 56 -185 85 -127 46 -172 64 -190 73
-27 15 -135 50 -220 72 -38 9 -79 22 -90 28 -11 5 -49 16 -85 23 -36 6 -76 18
-91 25 -14 8 -50 17 -80 21 -30 4 -87 17 -127 30 -40 13 -95 24 -123 24 -27 0
-65 6 -83 14 -31 13 -102 26 -221 41 -27 4 -75 13 -105 21 -30 8 -125 19 -210
24 -85 6 -211 14 -280 20 -69 5 -160 10 -202 10 -71 0 -78 -2 -97 -26 -13 -17
-21 -42 -21 -68 -1 -22 -5 -61 -10 -86 -5 -25 -14 -115 -20 -200 -6 -85 -18
-189 -26 -230 -8 -41 -19 -122 -25 -178 -6 -67 -17 -118 -29 -143 -11 -21 -20
-47 -20 -57 0 -38 -105 -142 -143 -142 -48 0 -143 99 -152 159 -4 20 -13 54
-21 76 -8 22 -19 92 -25 155 -5 63 -19 187 -30 275 -12 88 -24 220 -29 294 -7
129 -8 135 -34 158 -19 16 -40 23 -70 23 -23 0 -45 -2 -48 -5z m5101 -7255
c56 -11 111 -20 121 -20 49 0 49 -62 0 -127 -53 -70 -156 -189 -179 -207 -8
-6 -36 -32 -63 -58 -26 -27 -52 -48 -57 -48 -5 0 -39 -25 -76 -55 -36 -30 -72
-55 -80 -55 -7 0 -19 -7 -26 -16 -8 -9 -32 -25 -54 -35 -22 -11 -58 -33 -80
-50 -22 -16 -58 -39 -80 -49 -22 -11 -47 -24 -55 -30 -8 -5 -31 -16 -50 -25
-19 -8 -46 -22 -60 -30 -57 -32 -131 -65 -146 -65 -9 0 -37 -11 -63 -24 -47
-24 -98 -43 -206 -76 -33 -11 -80 -26 -105 -34 -97 -32 -217 -66 -250 -72 -19
-4 -46 -13 -59 -21 -13 -8 -55 -19 -95 -25 -39 -5 -89 -18 -112 -29 -23 -10
-61 -21 -85 -25 -24 -3 -64 -14 -89 -24 -25 -10 -72 -21 -105 -25 -32 -4 -81
-15 -107 -26 -26 -10 -82 -23 -125 -28 -44 -5 -92 -15 -108 -21 -45 -18 -203
-37 -263 -32 -51 4 -55 6 -69 41 -14 31 -14 54 -4 171 8 90 18 149 31 178 11
25 20 50 20 56 0 27 22 85 40 106 11 13 20 36 20 51 0 50 128 201 213 253 19
11 59 37 89 57 54 37 87 56 148 85 19 9 45 25 59 35 13 10 33 19 45 19 12 0
40 9 61 21 39 20 88 39 203 79 31 11 68 26 83 34 14 8 50 18 80 22 29 3 73 15
96 25 24 10 64 21 90 24 27 3 66 12 88 20 57 19 140 35 184 35 22 0 72 7 112
15 101 21 340 31 679 27 233 -2 304 -6 389 -22z m-8589 -34 c325 -5 638 -33
711 -64 24 -11 72 -22 107 -25 34 -4 80 -16 101 -27 22 -11 59 -23 83 -26 23
-4 52 -13 64 -21 11 -7 45 -20 75 -29 66 -19 176 -62 204 -79 11 -7 38 -18 60
-25 22 -7 47 -18 55 -25 8 -7 30 -17 49 -24 19 -6 43 -18 52 -27 10 -9 31 -23
48 -32 135 -74 262 -179 302 -251 11 -20 26 -47 34 -61 26 -47 63 -145 70
-185 4 -22 15 -65 26 -95 13 -39 19 -89 21 -171 3 -132 -3 -148 -69 -170 -47
-15 -202 -3 -262 21 -25 10 -75 21 -111 25 -36 4 -85 15 -110 25 -25 10 -70
20 -101 24 -30 4 -68 13 -83 21 -15 8 -58 20 -94 26 -62 10 -100 20 -237 65
-27 9 -84 23 -125 31 -41 8 -97 23 -125 33 -27 10 -95 32 -150 50 -55 18 -113
37 -130 42 -16 6 -50 17 -75 25 -25 8 -66 25 -91 39 -26 13 -54 24 -64 24 -9
0 -35 11 -58 24 -23 13 -57 27 -74 31 -18 4 -36 11 -39 17 -3 5 -25 18 -48 29
-22 10 -48 23 -56 29 -8 5 -31 16 -50 24 -19 9 -51 26 -70 38 -20 13 -51 32
-69 43 -18 11 -46 30 -61 43 -15 12 -33 22 -39 22 -6 0 -42 25 -79 55 -37 31
-76 62 -87 70 -156 113 -365 354 -348 402 3 7 21 23 41 35 34 21 52 23 212 28
96 3 204 4 240 3 36 -2 193 -5 350 -7z"/>
<path d="M13438 14594 c-18 -20 -37 -43 -42 -52 -5 -10 -17 -23 -27 -30 -10
-6 -21 -27 -25 -45 -3 -17 -16 -44 -28 -58 -11 -15 -29 -39 -38 -55 -29 -48
-42 -67 -65 -97 -13 -16 -23 -35 -23 -42 0 -7 -7 -21 -17 -30 -21 -22 -58 -72
-79 -110 -15 -27 -61 -88 -128 -170 -145 -177 -390 -427 -496 -505 -100 -75
-111 -83 -137 -107 -13 -13 -38 -30 -56 -39 -18 -9 -35 -21 -38 -26 -4 -6 -15
-15 -26 -21 -10 -7 -34 -21 -52 -32 -49 -29 -165 -125 -175 -144 -5 -9 -17
-25 -26 -36 -31 -35 -123 -207 -134 -249 -4 -16 -16 -41 -27 -54 -10 -14 -19
-30 -19 -36 0 -7 -11 -27 -24 -44 -13 -18 -26 -50 -30 -71 -3 -21 -15 -46 -26
-56 -11 -10 -20 -28 -20 -40 0 -11 -11 -36 -25 -55 -14 -19 -25 -41 -25 -49 0
-9 -11 -34 -25 -56 -13 -22 -25 -46 -25 -54 0 -7 -22 -52 -49 -100 -26 -47
-52 -97 -56 -111 -4 -14 -29 -70 -56 -125 -27 -56 -49 -106 -49 -111 0 -6 -8
-22 -19 -35 -10 -14 -24 -42 -29 -63 -6 -21 -17 -46 -25 -55 -8 -9 -20 -33
-26 -53 -7 -20 -18 -42 -26 -48 -7 -6 -16 -26 -20 -43 -5 -28 -52 -131 -130
-287 -12 -25 -26 -56 -30 -70 -4 -14 -13 -32 -20 -40 -7 -8 -18 -33 -25 -55
-7 -22 -18 -47 -25 -55 -15 -17 -46 -125 -53 -183 -2 -21 1 -59 8 -85 19 -71
80 -225 96 -243 7 -8 17 -31 20 -50 4 -19 17 -53 30 -76 13 -23 24 -52 24 -65
0 -13 12 -45 25 -73 14 -27 25 -57 25 -65 0 -8 11 -37 25 -65 13 -27 25 -63
25 -80 0 -16 9 -49 20 -72 10 -24 24 -71 31 -105 6 -35 18 -74 26 -86 8 -13
19 -53 25 -89 5 -36 21 -97 34 -136 13 -39 24 -82 24 -97 0 -14 14 -45 32 -69
29 -40 34 -43 66 -37 37 6 77 43 112 106 11 19 33 53 50 75 16 22 39 58 50 80
11 22 34 60 50 85 16 25 38 61 49 81 11 19 26 41 35 48 8 7 18 25 21 41 3 15
15 36 26 46 10 9 19 20 19 24 0 9 64 116 83 139 7 9 19 27 26 41 6 14 22 41
34 61 12 20 35 58 51 85 16 27 35 56 42 64 6 8 15 26 19 40 4 14 16 36 27 50
34 44 66 97 73 121 4 13 16 35 27 49 35 46 78 115 78 126 0 6 7 17 16 25 9 7
23 27 32 45 31 58 72 128 112 193 22 34 40 65 40 68 0 3 11 18 25 35 14 16 25
40 25 53 0 13 9 30 20 38 10 7 24 24 30 38 5 13 24 47 40 74 17 28 40 70 51
95 12 25 29 54 39 65 19 22 23 29 89 162 24 48 63 122 86 163 23 41 45 88 49
104 4 16 16 40 26 53 10 13 21 37 25 52 3 16 15 37 26 47 10 9 19 25 19 34 0
9 11 38 25 64 14 26 25 53 25 60 0 7 11 33 24 58 13 25 27 60 31 79 4 19 16
50 25 69 10 20 22 54 25 75 4 22 15 54 25 70 10 17 23 54 29 83 6 29 17 63 25
75 8 12 17 49 21 82 4 33 15 79 26 103 10 23 23 79 29 124 6 45 15 89 19 98
11 21 19 64 37 200 8 63 19 131 24 151 10 35 31 314 50 644 5 88 9 246 10 352
0 185 -1 193 -22 213 -31 29 -53 25 -90 -16z"/>
<path d="M2544 14266 c-3 -19 -1 -65 5 -103 6 -37 15 -167 21 -288 10 -202 27
-402 35 -416 2 -3 9 -66 15 -140 6 -74 20 -168 30 -209 10 -41 23 -106 29
-145 11 -68 32 -146 71 -270 11 -33 23 -80 26 -105 4 -25 15 -61 24 -80 10
-19 23 -55 30 -79 6 -24 20 -60 31 -80 10 -20 19 -45 19 -56 0 -11 9 -33 20
-50 11 -16 20 -37 20 -46 0 -8 11 -37 24 -65 64 -134 86 -184 86 -196 0 -8 7
-23 15 -36 24 -34 135 -254 135 -268 0 -6 7 -18 16 -25 9 -8 25 -33 35 -56 10
-24 23 -43 28 -43 5 0 12 -14 16 -30 4 -17 31 -67 61 -112 30 -45 54 -87 54
-93 0 -7 9 -20 20 -30 11 -10 22 -26 26 -37 3 -11 24 -47 47 -81 23 -34 50
-78 59 -97 10 -19 31 -55 48 -80 16 -25 34 -56 40 -70 6 -14 19 -34 29 -45 18
-20 95 -144 120 -193 8 -15 25 -40 38 -55 12 -16 23 -34 23 -41 0 -7 9 -21 19
-30 11 -10 23 -31 26 -46 3 -15 17 -38 31 -50 13 -13 24 -29 24 -36 0 -6 7
-18 16 -25 9 -8 25 -32 35 -54 11 -22 32 -59 47 -82 56 -85 98 -149 110 -168
7 -11 21 -33 32 -50 84 -131 110 -172 160 -255 51 -86 83 -135 89 -140 7 -5
41 -58 71 -112 29 -51 124 -191 173 -255 15 -20 27 -39 27 -44 0 -17 40 -19
70 -4 16 8 30 19 30 23 2 49 27 161 60 262 22 69 45 151 51 183 5 33 18 78 29
101 10 22 23 59 28 81 31 117 61 214 75 241 8 16 18 49 22 74 4 25 14 55 22
68 8 13 18 48 23 79 5 31 16 63 24 72 8 9 22 61 32 116 14 86 15 109 4 165 -7
36 -21 76 -31 89 -11 13 -19 29 -19 35 0 7 -11 34 -24 62 -13 27 -38 81 -56
119 -17 39 -47 99 -66 135 -18 36 -41 81 -50 100 -34 71 -86 176 -100 200 -7
14 -14 32 -14 41 0 8 -11 30 -25 49 -14 19 -25 41 -25 51 0 9 -9 28 -20 42
-11 14 -20 29 -20 35 0 5 -13 29 -30 53 -16 24 -30 54 -30 65 0 12 -9 32 -19
46 -11 14 -27 43 -36 66 -10 23 -21 42 -26 42 -5 0 -14 21 -20 46 -7 25 -18
48 -25 51 -7 3 -18 21 -25 41 -7 21 -20 47 -30 60 -10 13 -20 36 -24 52 -3 16
-13 34 -21 40 -7 7 -19 31 -25 54 -6 22 -17 48 -24 56 -7 8 -20 32 -29 53 -8
21 -22 44 -30 53 -9 8 -20 30 -25 49 -5 19 -16 42 -25 51 -9 8 -19 27 -22 42
-4 15 -15 36 -25 47 -9 11 -35 54 -56 96 -82 161 -190 285 -287 330 -22 11
-63 32 -91 48 -27 16 -61 35 -74 41 -13 6 -37 22 -53 35 -16 14 -36 25 -45 25
-8 0 -40 20 -71 44 -31 23 -70 50 -87 59 -61 31 -196 164 -383 375 -75 84 -76
86 -96 117 -11 16 -23 34 -28 40 -4 5 -24 30 -43 55 -19 25 -43 54 -53 65 -10
11 -29 38 -43 60 -14 22 -34 53 -45 69 -10 16 -24 36 -29 45 -6 9 -28 42 -50
75 -22 32 -45 68 -52 80 -17 29 -52 56 -74 56 -13 0 -20 -10 -25 -34z"/>
<path d="M2460 9329 c-26 -11 -46 -12 -483 -30 -301 -12 -310 -14 -389 -89
-25 -25 -63 -58 -83 -75 -20 -16 -59 -51 -88 -76 -29 -25 -110 -94 -182 -154
-71 -59 -138 -116 -148 -126 -10 -11 -21 -19 -26 -19 -12 0 -153 -117 -164
-135 -4 -8 -14 -15 -22 -15 -8 0 -43 -25 -79 -55 -35 -30 -68 -55 -71 -55 -4
0 -48 -34 -97 -75 -49 -41 -96 -75 -103 -75 -7 0 -20 -11 -29 -25 -9 -14 -22
-25 -29 -25 -22 0 -89 -76 -85 -96 3 -16 12 -19 56 -17 28 1 68 11 89 21 21
11 56 23 78 26 21 4 55 16 75 26 19 10 62 23 95 30 33 6 70 18 82 26 11 7 47
18 80 23 32 5 78 19 103 30 25 11 57 21 72 21 15 0 51 9 80 20 29 10 85 24
123 31 39 6 84 17 102 25 18 7 72 20 120 29 48 9 111 22 138 30 28 7 73 16
100 20 28 3 72 13 99 21 27 8 71 14 98 14 45 0 51 -3 100 -54 56 -56 77 -82
118 -141 14 -20 37 -52 53 -72 15 -20 27 -40 27 -45 0 -5 19 -34 43 -65 23
-30 58 -79 77 -107 70 -102 112 -156 121 -156 5 0 9 -6 9 -14 0 -8 9 -25 19
-38 11 -12 35 -41 53 -62 30 -36 33 -45 32 -103 -1 -48 -6 -69 -21 -86 -31
-35 -83 -122 -83 -140 0 -8 -10 -28 -23 -44 -21 -27 -48 -66 -100 -150 -13
-21 -31 -49 -41 -63 -9 -14 -36 -55 -61 -91 -24 -36 -51 -71 -59 -78 -9 -8
-16 -17 -16 -22 0 -5 -19 -37 -42 -70 -24 -33 -51 -73 -60 -87 -23 -35 -48
-69 -75 -103 -13 -15 -23 -31 -23 -37 0 -5 -7 -16 -16 -23 -9 -8 -27 -30 -40
-49 -39 -57 -65 -93 -136 -187 -37 -48 -82 -108 -100 -133 -18 -25 -35 -47
-38 -50 -3 -3 -21 -27 -40 -53 -19 -27 -59 -78 -87 -114 -29 -36 -53 -69 -53
-74 0 -5 -12 -22 -27 -38 -16 -17 -37 -42 -48 -57 -11 -14 -32 -41 -48 -59
-27 -32 -57 -93 -57 -116 0 -7 14 -8 43 -4 46 8 97 31 97 43 0 5 16 16 35 25
19 9 35 21 35 26 0 5 16 15 36 21 19 7 38 18 40 25 3 7 23 20 45 30 21 10 39
21 39 25 0 4 13 13 29 20 16 6 37 20 46 30 10 11 30 22 45 25 15 3 36 15 46
26 10 11 43 34 73 51 31 17 69 42 84 55 16 13 35 23 42 23 7 0 20 6 27 13 37
34 96 75 118 82 14 4 33 15 43 23 22 20 81 56 122 75 17 8 39 24 49 36 11 11
27 21 36 21 10 0 28 8 41 19 13 10 59 38 102 62 43 24 99 56 125 71 26 15 65
36 87 47 22 12 47 25 55 31 8 5 50 26 92 45 42 20 82 43 89 51 6 7 30 19 53
25 22 5 52 18 66 28 14 10 42 23 62 30 20 7 42 19 48 27 8 8 30 14 57 14 66 0
82 -14 782 -712 411 -410 396 -389 365 -498 -9 -30 -22 -77 -30 -105 -8 -27
-14 -61 -14 -75 0 -14 -9 -44 -20 -67 -10 -24 -22 -71 -26 -105 -3 -35 -15
-83 -25 -108 -10 -25 -23 -72 -30 -105 -6 -32 -17 -68 -24 -80 -7 -11 -16 -45
-20 -75 -4 -30 -18 -81 -31 -112 -13 -32 -24 -64 -24 -73 0 -9 -8 -32 -19 -53
-10 -20 -24 -66 -30 -100 -7 -35 -21 -78 -32 -95 -10 -18 -19 -43 -19 -57 0
-14 -12 -47 -25 -75 -14 -27 -25 -57 -25 -67 0 -9 -11 -40 -25 -70 -14 -29
-25 -65 -25 -79 0 -14 -11 -46 -24 -71 -13 -25 -27 -60 -31 -78 -4 -18 -16
-47 -26 -64 -10 -17 -19 -37 -19 -45 0 -8 -9 -33 -19 -55 -19 -40 -48 -117
-77 -206 -8 -25 -23 -61 -33 -80 -10 -19 -22 -51 -26 -70 -4 -19 -16 -51 -26
-70 -11 -19 -19 -42 -19 -51 0 -8 -11 -38 -25 -64 -13 -27 -27 -62 -31 -78 -3
-16 -14 -44 -24 -61 -10 -17 -27 -62 -37 -99 -15 -59 -16 -69 -3 -77 24 -16
49 -11 68 11 9 12 24 29 32 38 9 9 33 39 55 66 21 28 58 70 82 95 24 24 43 48
43 52 0 4 11 19 24 33 48 52 116 131 176 205 34 41 78 93 98 115 20 22 49 56
63 75 15 19 54 66 88 104 33 38 61 73 61 78 0 5 21 30 48 56 70 71 196 211
207 232 6 10 30 41 55 68 25 27 77 84 115 127 142 158 553 564 578 570 25 7
60 -19 172 -127 22 -21 43 -38 46 -38 4 0 29 -21 56 -47 99 -94 216 -198 232
-207 9 -5 27 -21 42 -35 29 -30 85 -80 184 -165 39 -33 95 -82 126 -110 117
-108 202 -181 218 -190 9 -5 37 -30 63 -55 72 -69 243 -222 348 -311 160 -136
342 -315 387 -382 19 -28 36 -71 42 -104 6 -31 15 -62 20 -68 5 -6 17 -42 26
-81 10 -38 23 -82 31 -96 7 -14 16 -54 19 -90 4 -35 15 -91 25 -124 11 -33 24
-89 30 -125 6 -36 17 -85 25 -110 8 -25 19 -83 25 -129 6 -47 17 -103 25 -125
7 -23 18 -81 25 -131 6 -49 17 -117 25 -150 9 -33 21 -105 29 -160 8 -55 19
-112 25 -127 6 -15 15 -76 21 -135 6 -59 19 -144 29 -188 11 -44 22 -109 26
-145 3 -36 13 -85 20 -110 8 -25 19 -88 25 -140 6 -52 17 -120 25 -150 8 -30
22 -107 30 -170 19 -143 48 -277 64 -293 22 -22 45 8 68 87 12 42 25 109 28
149 4 40 15 104 25 142 10 39 23 115 30 170 6 54 17 122 25 150 8 27 18 91 24
140 5 50 15 104 21 120 7 17 18 80 26 140 8 61 21 133 29 160 8 28 19 94 25
149 6 54 17 124 24 155 8 31 20 93 26 138 6 46 19 115 29 155 11 40 22 101 25
136 4 34 14 81 22 105 8 23 19 76 24 118 5 41 18 102 29 135 10 32 22 81 26
107 4 27 14 68 24 90 10 23 21 70 24 105 4 34 15 79 26 100 10 20 21 55 25 77
4 22 14 49 21 61 7 11 19 41 25 65 12 44 82 129 107 129 6 0 33 21 60 46 26
25 60 52 76 60 15 8 27 18 27 22 0 4 12 15 28 24 15 9 46 34 69 56 58 54 116
103 147 127 15 11 35 27 44 35 10 8 55 48 102 89 47 41 96 85 110 99 14 13 51
45 83 70 31 25 57 49 57 53 0 5 17 20 38 33 20 13 53 39 73 57 21 19 53 48 73
64 20 17 61 53 91 80 126 116 205 186 280 251 44 37 89 77 100 88 21 21 85 76
160 138 22 18 49 41 60 51 115 102 167 115 230 57 61 -55 420 -419 480 -485
39 -43 94 -101 123 -130 28 -29 52 -56 52 -61 0 -4 26 -35 58 -69 88 -95 138
-150 197 -220 30 -35 64 -74 75 -87 31 -35 128 -150 149 -178 22 -28 77 -93
104 -124 10 -12 66 -79 124 -151 58 -71 114 -139 125 -150 10 -11 58 -67 106
-125 99 -120 98 -120 133 -120 45 0 53 22 30 74 -12 25 -21 49 -21 53 0 5 -9
25 -20 45 -11 20 -25 58 -31 85 -6 26 -20 62 -29 78 -10 17 -23 46 -28 65 -6
19 -25 71 -42 115 -54 136 -59 150 -60 165 0 8 -12 38 -25 65 -14 28 -25 55
-25 62 0 6 -11 35 -25 65 -14 29 -25 62 -25 73 0 11 -11 41 -25 67 -14 26 -25
55 -25 65 0 10 -11 41 -25 68 -13 28 -25 58 -25 68 0 10 -11 40 -25 67 -14 27
-25 60 -25 72 0 13 -12 46 -25 73 -14 28 -25 56 -25 63 0 7 -11 39 -25 72 -14
33 -25 70 -25 83 0 12 -9 41 -20 62 -12 22 -26 60 -32 85 -6 25 -17 56 -24 70
-7 14 -18 55 -24 90 -6 36 -17 74 -25 86 -7 11 -18 55 -25 98 -6 43 -20 97
-30 120 -10 23 -21 67 -25 96 -4 30 -13 67 -20 81 -8 14 -21 70 -29 125 -8 54
-22 117 -30 139 -24 64 -20 123 11 169 22 34 89 114 134 161 61 65 115 119
300 304 120 119 243 242 275 274 33 32 68 68 80 80 19 21 42 43 124 119 19 18
57 57 84 86 54 57 80 65 124 33 15 -10 43 -26 62 -35 19 -9 58 -29 85 -44 28
-16 114 -62 192 -103 216 -112 217 -113 249 -134 48 -33 68 -45 94 -56 14 -6
34 -15 45 -20 11 -5 45 -27 75 -49 30 -22 60 -40 67 -40 6 0 24 -11 40 -24 15
-13 39 -27 53 -31 14 -4 34 -15 45 -24 25 -21 92 -65 127 -82 15 -8 54 -33 87
-56 34 -24 63 -43 66 -43 3 0 18 -8 33 -19 15 -10 50 -32 77 -49 28 -17 64
-41 80 -52 83 -57 173 -114 200 -127 17 -8 44 -24 60 -36 17 -12 55 -40 85
-63 71 -52 163 -104 184 -104 21 0 30 23 22 54 -3 13 -34 59 -69 102 -35 44
-68 86 -73 96 -5 9 -28 36 -50 60 -23 24 -49 59 -58 76 -9 18 -21 32 -26 32
-5 0 -15 10 -22 23 -37 65 -56 92 -83 121 -16 18 -37 43 -45 55 -8 13 -28 41
-45 62 -16 21 -41 54 -55 75 -14 20 -35 47 -47 61 -13 13 -23 27 -23 31 0 10
-57 88 -107 149 -24 28 -43 56 -43 62 0 5 -13 25 -28 43 -15 18 -39 51 -53 73
-14 22 -44 66 -65 98 -64 97 -92 140 -114 177 -11 19 -34 53 -51 75 -55 75
-99 142 -99 153 0 6 -11 23 -24 39 -13 15 -39 58 -58 94 -19 36 -54 94 -77
130 -44 68 -47 97 -13 130 30 29 57 63 70 89 18 36 81 125 118 165 11 12 29
36 40 53 30 46 102 156 111 167 4 6 24 32 43 58 19 27 44 60 56 75 11 15 37
54 57 88 44 71 82 91 144 75 21 -5 63 -13 93 -16 30 -4 68 -14 83 -22 16 -8
56 -19 90 -24 34 -5 78 -16 97 -23 19 -8 60 -17 90 -21 30 -4 90 -18 133 -31
43 -13 90 -24 105 -24 15 0 59 -12 97 -25 39 -14 79 -25 90 -25 11 0 43 -12
70 -25 28 -14 67 -25 87 -25 21 0 66 -11 100 -24 95 -35 218 -73 262 -81 22
-4 49 -13 60 -21 11 -7 53 -21 93 -30 58 -13 76 -14 88 -4 24 20 17 43 -22 77
-92 77 -126 103 -135 103 -6 0 -21 10 -34 23 -43 41 -59 54 -89 71 -16 9 -48
30 -70 47 -22 16 -51 37 -65 47 -13 9 -34 26 -46 37 -12 11 -52 43 -88 70 -37
28 -113 87 -169 132 -56 46 -113 91 -126 100 -13 10 -33 27 -45 38 -21 20 -86
76 -122 105 -59 48 -204 173 -236 203 -21 19 -52 40 -70 45 -18 6 -184 15
-368 21 -184 6 -367 13 -406 16 -88 6 -116 -9 -95 -48 7 -13 50 -63 94 -110
45 -47 87 -92 92 -99 6 -7 30 -40 54 -73 24 -33 53 -68 63 -78 10 -10 18 -26
18 -37 0 -19 -77 -119 -158 -205 -26 -27 -67 -72 -90 -100 -24 -27 -92 -100
-150 -161 -230 -239 -302 -315 -309 -328 -13 -22 -135 -120 -185 -149 -40 -23
-52 -26 -90 -18 -54 11 -128 37 -194 67 -28 13 -58 24 -66 24 -8 0 -26 9 -40
19 -13 11 -38 23 -54 27 -16 4 -47 17 -69 29 -22 13 -55 25 -73 29 -19 3 -45
15 -59 26 -51 40 -148 15 -111 -28 9 -9 21 -34 27 -54 7 -21 17 -41 23 -44 5
-3 18 -25 29 -48 18 -38 32 -65 66 -126 8 -14 21 -41 29 -60 8 -19 19 -42 24
-50 6 -8 22 -37 36 -65 14 -27 32 -61 40 -75 9 -16 13 -42 11 -72 -4 -49 -13
-61 -161 -205 -32 -32 -70 -70 -85 -85 -14 -16 -29 -28 -34 -28 -5 0 -55 -42
-112 -92 -106 -96 -154 -137 -215 -185 -20 -15 -44 -36 -55 -45 -18 -16 -73
-63 -185 -159 -19 -16 -66 -53 -104 -82 -37 -29 -108 -85 -157 -124 -48 -40
-91 -73 -95 -73 -3 0 -32 -22 -64 -50 -32 -27 -62 -50 -68 -50 -6 0 -21 -9
-34 -20 -120 -102 -150 -106 -244 -27 -34 28 -82 66 -106 84 -24 18 -85 73
-137 122 -52 50 -98 91 -103 91 -7 0 -36 26 -144 130 -17 17 -46 35 -64 42
-29 9 -35 9 -47 -7 -18 -26 -16 -56 7 -115 11 -28 25 -83 30 -123 6 -39 17
-90 25 -115 9 -24 20 -87 25 -140 6 -53 17 -117 25 -142 8 -25 21 -94 29 -155
l15 -110 -27 -23 c-33 -28 -130 -92 -140 -92 -4 0 -25 -14 -46 -30 -22 -17
-45 -30 -51 -30 -7 0 -20 -9 -30 -20 -10 -11 -27 -22 -39 -26 -11 -4 -34 -17
-49 -30 -16 -13 -37 -24 -48 -24 -10 0 -28 -9 -38 -19 -10 -10 -35 -25 -55
-32 -20 -7 -36 -17 -36 -21 0 -5 -21 -18 -46 -28 -25 -11 -52 -27 -60 -35 -9
-8 -23 -15 -32 -15 -10 0 -34 -11 -54 -25 -20 -14 -43 -25 -51 -25 -8 0 -26
-9 -40 -20 -14 -11 -45 -27 -68 -35 -23 -9 -48 -20 -55 -26 -23 -19 -149 -79
-165 -79 -9 0 -22 -7 -29 -15 -6 -8 -35 -21 -63 -29 -29 -9 -83 -32 -122 -52
-38 -19 -92 -42 -120 -49 -27 -8 -68 -23 -90 -34 -21 -12 -45 -21 -53 -21 -7
0 -30 -9 -50 -19 -21 -11 -75 -25 -120 -32 -100 -15 -124 -7 -153 53 -11 24
-26 54 -34 68 -8 14 -15 33 -15 42 0 10 -12 44 -26 75 -15 32 -37 81 -49 108
-13 28 -26 71 -29 97 -4 25 -13 51 -21 58 -7 6 -17 30 -20 53 -4 23 -17 67
-30 97 -12 30 -25 75 -29 98 -4 24 -15 60 -25 80 -10 21 -22 60 -26 87 -3 28
-15 69 -25 91 -10 23 -21 60 -25 83 -8 51 -50 103 -78 99 -14 -2 -25 -18 -37
-55 -9 -29 -22 -58 -28 -65 -5 -7 -16 -42 -22 -78 -6 -36 -16 -70 -20 -75 -5
-6 -18 -42 -28 -80 -11 -39 -27 -88 -36 -110 -8 -22 -15 -51 -16 -64 0 -13 -9
-38 -19 -55 -10 -17 -22 -51 -26 -76 -4 -25 -18 -66 -31 -92 -13 -26 -24 -56
-24 -65 0 -10 -11 -39 -25 -65 -14 -26 -25 -58 -25 -71 0 -13 -8 -35 -18 -48
-11 -13 -24 -39 -30 -57 -6 -19 -23 -47 -37 -64 -14 -16 -25 -34 -25 -39 0 -4
-14 -16 -32 -25 -46 -24 -106 -12 -268 51 -77 30 -145 55 -153 55 -7 0 -28 11
-47 25 -19 14 -42 25 -51 25 -10 0 -24 6 -32 14 -7 8 -36 21 -63 29 -27 9 -67
25 -89 36 -21 12 -47 21 -56 21 -9 0 -27 8 -40 18 -26 20 -54 36 -174 94 -44
22 -89 44 -100 50 -11 7 -33 18 -50 25 -16 8 -41 20 -55 28 -14 7 -61 32 -105
55 -43 23 -90 50 -103 61 -14 10 -32 19 -42 19 -10 0 -29 9 -43 20 -14 11 -41
27 -59 36 -18 8 -53 28 -78 44 -25 17 -64 39 -87 49 -72 34 -77 50 -69 222 3
82 11 161 17 176 6 16 19 79 29 141 10 62 23 119 29 125 5 7 13 41 17 77 4 36
17 98 30 138 27 83 30 124 10 141 -20 17 -66 3 -98 -28 -45 -45 -129 -116
-148 -126 -11 -6 -40 -30 -65 -54 -47 -45 -202 -172 -276 -226 -22 -16 -49
-38 -61 -48 -11 -11 -40 -26 -64 -34 -58 -20 -100 -6 -177 58 -32 27 -65 49
-73 49 -8 0 -34 19 -58 43 -53 51 -174 152 -228 189 -21 14 -70 55 -108 89
-39 35 -81 70 -94 78 -13 9 -47 36 -75 61 -120 106 -161 141 -256 218 -55 45
-123 103 -151 129 -29 27 -65 58 -80 70 -16 12 -63 53 -105 90 -41 37 -90 80
-108 96 -29 24 -33 32 -27 59 3 17 12 39 20 47 7 9 17 27 21 41 4 14 16 35 26
48 10 13 21 37 25 55 3 18 14 43 24 57 10 14 25 41 34 60 9 19 30 58 46 85 16
28 34 61 40 75 7 14 18 36 26 50 7 14 21 41 31 60 9 19 23 42 31 52 7 9 12 29
10 45 -3 26 -6 28 -42 26 -22 -2 -49 -11 -60 -22 -12 -11 -39 -22 -61 -26 -22
-4 -59 -18 -82 -31 -23 -13 -50 -24 -60 -24 -10 0 -38 -11 -63 -24 -25 -13
-58 -26 -74 -30 -17 -4 -42 -16 -57 -27 -15 -10 -35 -19 -46 -19 -10 0 -40
-12 -68 -25 -37 -19 -66 -25 -114 -25 -56 0 -70 4 -116 35 -29 19 -74 57 -101
84 -27 28 -55 56 -62 63 -8 7 -30 31 -50 52 -21 22 -82 85 -137 140 -54 56
-120 126 -146 156 -26 30 -87 96 -135 146 -162 167 -204 214 -210 238 -7 27
29 104 57 124 11 7 19 18 19 25 0 6 12 23 26 37 52 52 177 186 208 225 43 52
48 68 30 94 -16 23 -44 26 -84 10z"/>
</g>
</svg>
